inDegrees=no
num_controls=7
num_derivatives=13
num_iterations=99
num_multipliers=7
num_parameters=0
num_slacks=7
num_states=26
objective=0.449788
objective_accelerations=0.048377
objective_balance=0.007763
objective_effort=0.037476
objective_height=0.351180
objective_ligament=0.004992
solver_duration=1322.064038
status=Solve_Succeeded
success=true
DataType=double
version=3
OpenSimVersion=4.5
endheader
time	/jointset/ground_pelvis/pelvis_tilt/value	/jointset/ground_pelvis/pelvis_tx/value	/jointset/ground_pelvis/pelvis_ty/value	/jointset/hip_l/hip_flexion_l/value	/jointset/hip_l/hip_adduction_l/value	/jointset/hip_l/hip_rotation_l/value	/jointset/back/lumbar_extension/value	/jointset/patellofemoral_l/patellar_flexion_l/value	/jointset/knee_l/knee_flexion_l/value	/jointset/knee_l/knee_adduction_l/value	/jointset/knee_l/knee_rotation_l/value	/jointset/ankle_l/ankle_angle_l/value	/jointset/subtalar_l/subtalar_angle_l/value	/jointset/ground_pelvis/pelvis_tilt/speed	/jointset/ground_pelvis/pelvis_tx/speed	/jointset/ground_pelvis/pelvis_ty/speed	/jointset/hip_l/hip_flexion_l/speed	/jointset/hip_l/hip_adduction_l/speed	/jointset/hip_l/hip_rotation_l/speed	/jointset/back/lumbar_extension/speed	/jointset/patellofemoral_l/patellar_flexion_l/speed	/jointset/knee_l/knee_flexion_l/speed	/jointset/knee_l/knee_adduction_l/speed	/jointset/knee_l/knee_rotation_l/speed	/jointset/ankle_l/ankle_angle_l/speed	/jointset/subtalar_l/subtalar_angle_l/speed	/forceset/tau_hip_flexion_l	/forceset/tau_hip_adduction_l	/forceset/tau_hip_rotation_l	/forceset/tau_knee_flexion_l	/forceset/tau_ankle_angle_l	/forceset/tau_subtalar_angle_l	/forceset/tau_lumbar_extension	lambda_cid13_p0	lambda_cid13_p1	lambda_cid13_p2	lambda_cid13_p3	lambda_cid13_p4	lambda_cid13_p5	lambda_cid14_p0	/jointset/ground_pelvis/pelvis_tilt/accel	/jointset/ground_pelvis/pelvis_tx/accel	/jointset/ground_pelvis/pelvis_ty/accel	/jointset/hip_l/hip_flexion_l/accel	/jointset/hip_l/hip_adduction_l/accel	/jointset/hip_l/hip_rotation_l/accel	/jointset/back/lumbar_extension/accel	/jointset/patellofemoral_l/patellar_flexion_l/accel	/jointset/knee_l/knee_flexion_l/accel	/jointset/knee_l/knee_adduction_l/accel	/jointset/knee_l/knee_rotation_l/accel	/jointset/ankle_l/ankle_angle_l/accel	/jointset/subtalar_l/subtalar_angle_l/accel	gamma_cid13_p0	gamma_cid13_p1	gamma_cid13_p2	gamma_cid13_p3	gamma_cid13_p4	gamma_cid13_p5	gamma_cid14_p0
0.5	-0.4466602623656621	-0.07742266684680428	0.7661117832162968	1.254632769708771	-0.3069948176928946	-0.04269129570661041	-0.3293650387410144	0.664401246014112	0.664401246014203	-0.1745026141475993	0.1614519960570124	0.02306827087926181	-0.04882366009008939	-0.756757136771427	-0.2782724361215637	-0.4850193664446463	2.355242343460182	-0.04270264651557915	0.5386504358975455	-0.6254777787257148	1.722515409350635	1.722515409350666	-0.0005966571088207756	0.05754719980124547	0.2016199398118653	-0.02204566400158293	-0.2445561055714514	0.02283770031576115	-0.01939051147248648	-0.2010600771759635	0.1504093545989524	0.03508168978731963	0.2197949291400668	9.329803911611478	-19.26456700169144	5.404555167712507	-5.366702830367819	-607.1693616904225	-54.08893691536898	-29.39404758659427	0.6159070949618785	0.6942408526193586	-0.3104304851933389	-1.494551105731252	0.4843920548959663	-0.2022535618508604	1.742532735572206	-1.031415828347972	-1.031415828347977	0.03578206162053747	-0.07365567211719455	-0.09463317681930555	0.4593911277007524	-5.030891629985638e-08	-9.885010696227773e-07	4.200967540507926e-07	-9.939394005367552e-08	-2.370979737521008e-07	-3.156885537022944e-08	-1.679597858556512e-07
0.51	-0.4541953896037159	-0.08017031410240576	0.7612471203437617	1.278106288948968	-0.3073986536245974	-0.03731631706862245	-0.335532500617199	0.6815722696153329	0.6815722696153992	-0.1745082568920207	0.1620250339915032	0.02507905917065482	-0.04902225128167674	-0.7501661392902815	-0.2712285307465075	-0.4878107069468623	2.339138918476407	-0.03807034165078017	0.5362746168337467	-0.6079310811762781	1.711447920360612	1.711447920360708	-0.0005254588204533893	0.05705045332755435	0.2004992811931415	-0.01767890804220681	-0.2529935791287561	0.02360579298949404	-0.01959119413431158	-0.202127433506376	0.1504325918513879	0.03570577304811904	0.2263427814743805	9.083986243203299	-19.39915817507337	5.319319033298485	-5.393968167703908	-611.811467317002	-53.70423635300287	-28.43760654627427	0.6960096682082338	0.7137192982000825	-0.2481571444231917	-1.716642352865283	0.4518452560899026	-0.2660342805868274	1.773265564884306	-1.180590624913694	-1.180590624903997	-0.006397356423850832	-0.03930823081462045	-0.1265530316055693	0.4244672449132009	-8.327967036150959e-08	-8.714999579309496e-07	5.782527393109722e-07	-5.703495447230333e-08	-2.504065035429813e-07	6.090313680644622e-09	-1.80129092491062e-07
0.52	-0.4616615441482554	-0.08284667152060643	0.7563576098038669	1.301409093107692	-0.3077563273968892	-0.03196725426165937	-0.3415219900578387	0.6986253832885367	0.6986253832885799	-0.1745130248673321	0.1625927796420941	0.02707748671041926	-0.04917734503069889	-0.7429625980684414	-0.2640144686414005	-0.4899888999165802	2.321099327166045	-0.0334702146332603	0.5334672696922509	-0.5898832916166444	1.698933423747222	1.698933423747382	-0.0004217032868333725	0.05648874302108049	0.1991477894861514	-0.01334617548854432	-0.2614310526860688	0.02437388566322949	-0.01979187679613431	-0.2031947898367877	0.1504558291038255	0.0363298563089216	0.2328906338086848	8.830875899651044	-19.53429604872417	5.23625314737619	-5.409627116238282	-616.56911713922	-53.3708697014643	-27.46715652728056	0.7384158431008173	0.7282721986295021	-0.187800978693711	-1.881784371048463	0.4779564854401483	-0.2885591773902529	1.842751137611595	-1.320817353021293	-1.320817353021476	0.04229351067107238	-0.08664843867373664	-0.1407997944725833	0.4525864465580259	-1.421716680991629e-07	-7.05596025168878e-07	8.784432261300031e-07	1.683674343475426e-08	-2.86797038268368e-07	5.925903910627874e-08	-2.067628402013005e-07
0.53	-0.4690527564418957	-0.08545014267569294	0.7514494023352425	1.324522023861435	-0.3080683277163555	-0.02664750275742884	-0.3473286290611584	0.7155459950445965	0.7155459950445949	-0.174517308958748	0.1631539174927165	0.02906113923892044	-0.04928947727749191	-0.7351847218742023	-0.2566604084331976	-0.4915485619578	2.301182267419623	-0.02893659113822919	0.5303924830376386	-0.5713792103873813	1.684962020722886	1.684962020722962	-0.0004125326310594177	0.05574631249416918	0.1975461636464746	-0.009087277840409396	-0.269681374763857	0.02501207010064659	-0.02000741952282007	-0.2043009306658304	0.1504754141356332	0.03679102541484028	0.2392302909068387	8.575430321122187	-19.59909000403682	5.142907237045308	-5.362912361194281	-621.2413866716711	-52.92648864324081	-26.4916066198508	0.8117237505380853	0.7418871508925432	-0.1245052215218863	-2.092377511172629	0.4399956852545074	-0.3307431313529392	1.864031414587706	-1.469293637941885	-1.469293637954356	-0.01644614042140777	-0.0671529919153456	-0.1753221522287876	0.4114670647244645	-1.916948946002405e-07	-5.417360286092684e-07	1.159509657830278e-06	8.011463901320944e-08	-3.098719420025013e-07	1.145981552788693e-07	-2.30352615727901e-07
0.54	-0.4763633399250037	-0.08797949038490205	0.7465287069652687	1.347426641870764	-0.308335205720128	-0.02136126006411438	-0.3529482682923852	0.732320094398252	0.7323200943982069	-0.1745208363402949	0.1637078085116291	0.0310276798743221	-0.04935923541964691	-0.7268368359618579	-0.2491897794659219	-0.4924864801864544	2.279436778283859	-0.02444575149440196	0.5267655075087778	-0.5524833371979567	1.669630943266463	1.669630943266456	-0.0002703613133640742	0.05503937667863627	0.1957254108662552	-0.004871354560944893	-0.2779316968416524	0.02565025453806552	-0.02022296224949159	-0.2054070714948741	0.1504949991674424	0.03725219452076082	0.2455699480049841	8.316417541215586	-19.66583423664068	5.052813861331736	-5.332785725150319	-625.9870548997297	-52.54165354502644	-25.51694372439486	0.8524177867218656	0.7515859504440574	-0.0634522161806252	-2.247470248916734	0.4693997151993767	-0.3989969522399552	1.921109529643841	-1.592752239438764	-1.592752239438793	0.06889364305535603	-0.07954949639805263	-0.1846251825811225	0.4439915728239411	-2.308526720736175e-07	-3.801374082736597e-07	1.419417560462993e-06	1.316717320153384e-07	-3.182146582569497e-07	1.723385548310712e-07	-2.505745922428169e-07
